<svg xmlns="http://www.w3.org/2000/svg" version="1.0" width="" height="" viewBox="0 0 300.000000 166.000000" preserveAspectRatio="xMidYMid meet" style="fill: var(--vt-body-color); background: var(--vt-body-bg)">

<g transform="translate(0.000000,166.000000) scale(0.100000,-0.100000)" stroke="none">
<path d="M822 1653 c401 -2 1055 -2 1455 0 401 1 73 2 -727 2 -800 0 -1128 -1 -728 -2z"/>
<path d="M35 1626 c19 -14 19 -14 0 -36 l-19 -21 39 3 c37 3 40 5 43 36 3 32 3 32 -39 32 -39 0 -41 -1 -24 -14z m55 -21 c0 -19 -5 -25 -21 -25 -17 0 -19 3 -10 13 8 10 7 17 -1 25 -9 9 -7 12 10 12 17 0 22 -6 22 -25z" style="fill: var(--vt-primary)"/>
<path d="M2470 1605 c0 -18 5 -25 20 -25 15 0 20 7 20 25 0 18 -5 25 -20 25 -15 0 -20 -7 -20 -25z"/>
<path d="M2570 1610 c0 -15 7 -20 25 -20 18 0 25 5 25 20 0 15 -7 20 -25 20 -18 0 -25 -5 -25 -20z"/>
<path d="M170 1612 c-5 -2 -10 -8 -10 -13 0 -13 122 -7 127 6 3 10 -92 15 -117 7z"/>
<path d="M300 1604 c0 -7 40 -11 120 -12 76 0 120 4 120 10 0 7 4 7 13 1 17 -14 417 -15 417 -1 0 7 4 7 13 0 13 -11 127 -12 127 -1 0 11 -55 18 -58 8 -2 -5 -9 -6 -15 -2 -20 12 -737 9 -737 -3z"/>
<path d="M2127 1608 c-7 -4 -7 -8 -2 -8 6 0 20 -3 33 -6 16 -5 22 -2 22 9 0 16 -31 19 -53 5z"/>
<path d="M52 1498 c-18 -18 -15 -35 8 -41 12 -3 20 0 20 8 0 7 9 15 20 18 11 3 20 10 20 16 0 15 -53 14 -68 -1z"/>
<path d="M380 1481 c0 -5 13 -12 30 -16 51 -11 77 -75 50 -124 -16 -31 -65 -46 -100 -31 -56 23 -69 92 -25 136 31 31 32 37 1 23 -50 -23 -63 -113 -22 -154 80 -80 203 -7 174 103 -6 21 -21 40 -41 52 -34 21 -67 26 -67 11z" style="fill: var(--vt-danger)"/>
<path d="M2806 1451 c-4 -6 -2 -11 4 -11 7 0 9 -9 5 -22 -5 -18 -4 -20 4 -8 10 13 12 13 20 0 6 -8 13 -11 18 -7 4 5 1 12 -7 18 -13 7 -13 10 -1 18 8 5 9 11 3 15 -6 3 -13 0 -15 -6 -4 -10 -8 -10 -15 1 -7 9 -12 10 -16 2z"/>
<path d="M610 1430 c0 -15 5 -20 18 -18 9 2 17 10 17 18 0 8 -8 16 -17 18 -13 2 -18 -3 -18 -18z"/>
<path d="M700 1430 c0 -4 23 -10 50 -12 33 -2 50 1 50 9 0 7 -19 11 -50 11 -27 1 -50 -3 -50 -8z"/>
<path d="M810 1430 c0 -6 33 -10 80 -10 44 0 80 4 80 8 0 5 -36 10 -80 10 -48 1 -80 -2 -80 -8z"/>
<path d="M1020 1428 c0 -4 32 -8 70 -8 42 0 70 4 70 11 0 6 -26 9 -70 8 -38 -1 -70 -6 -70 -11z"/>
<path d="M1170 1431 c0 -12 41 -17 103 -13 75 6 55 22 -28 22 -41 0 -75 -4 -75 -9z"/>
<path d="M1380 1429 c0 -5 36 -9 80 -9 49 0 80 4 80 10 0 7 -30 10 -80 9 -44 -1 -80 -6 -80 -10z"/>
<path d="M386 1405 c-9 -14 -22 -23 -28 -19 -6 4 -9 3 -5 -2 3 -5 20 -9 39 -9 28 0 33 3 33 24 0 34 -19 37 -39 6z" style="fill: var(--vt-danger)"/>
<path d="M34 1379 c-8 -13 3 -24 33 -33 20 -6 21 -5 10 18 -13 27 -31 34 -43 15z"/>
<path d="M2669 1298 c-1 -17 -2 -19 -6 -5 -8 31 -19 18 -20 -23 -1 -27 3 -40 11 -37 6 2 11 12 11 23 0 15 6 18 30 16 17 -2 26 0 22 5 -5 4 -14 8 -20 8 -7 0 -11 8 -9 18 2 9 -2 17 -8 17 -5 0 -11 -10 -11 -22z"/>
<path d="M612 1292 c-7 -2 -12 -8 -12 -13 0 -13 122 -7 127 6 3 10 -90 16 -115 7z"/>
<path d="M740 1284 c0 -7 120 -11 400 -11 220 0 400 3 400 7 0 4 -10 10 -22 14 -33 8 -40 7 -32 -6 5 -7 3 -8 -7 -2 -21 13 -739 12 -739 -2z"/>
<path d="M1960 1288 c0 -8 14 -13 35 -14 23 0 35 4 35 13 0 8 -13 13 -35 13 -21 0 -35 -5 -35 -12z"/>
<path d="M2120 1286 c0 -8 26 -11 93 -8 113 3 117 4 117 12 0 4 -47 7 -105 7 -75 1 -105 -2 -105 -11z"/>
<path d="M2340 1288 c0 -5 8 -8 18 -9 9 0 29 -2 45 -3 16 -1 27 3 27 11 0 8 -15 12 -45 10 -25 -1 -45 -5 -45 -9z"/>
<path d="M53 1273 c-22 -8 -15 -43 7 -43 13 0 20 7 20 19 0 22 -9 30 -27 24z"/>
<path d="M1920 1246 c0 -11 8 -15 25 -14 23 2 37 18 16 18 -5 0 -16 3 -25 6 -11 4 -16 1 -16 -10z"/>
<path d="M2141 1245 c10 -10 89 -14 89 -5 0 6 -21 10 -47 10 -25 0 -44 -2 -42 -5z"/>
<path d="M600 1231 c0 -4 20 -8 45 -8 25 0 45 4 45 8 0 5 -20 9 -45 9 -25 0 -45 -4 -45 -9z"/>
<path d="M610 1177 c0 -9 11 -12 35 -9 19 2 35 8 35 13 0 5 -16 9 -35 9 -22 0 -35 -5 -35 -13z"/>
<path d="M318 1173 c39 -2 105 -2 145 0 39 1 7 3 -73 3 -80 0 -112 -2 -72 -3z"/>
<path d="M67 1143 c-12 -12 -17 -13 -17 -5 0 7 -5 10 -11 7 -6 -5 -4 -12 8 -20 15 -11 20 -10 31 7 18 25 11 32 -11 11z"/>
<path d="M334 1148 c-2 -3 21 -8 51 -10 30 -1 55 0 55 4 0 8 -101 15 -106 6z"/>
<path style="fill: var(--vt-primary)" d="M430 1003 c0 -8 12 -13 30 -13 17 0 30 4 30 9 0 5 -13 11 -30 13 -20 3 -30 0 -30 -9z"/>
<path d="M885 1012 c-13 -14 -2 -22 30 -22 19 0 35 4 35 9 0 10 -57 21 -65 13z"/>
<path d="M1047 1012 c-9 -2 -17 -8 -17 -13 0 -5 32 -9 70 -9 49 0 70 4 70 13 0 11 -79 17 -123 9z"/>
<path d="M1260 1006 c0 -13 12 -16 55 -16 30 0 55 5 55 10 0 6 -20 9 -43 9 -24 -1 -49 1 -55 5 -7 4 -12 1 -12 -8z"/>
<path d="M1514 1011 c-15 -15 6 -21 76 -21 44 0 80 4 80 9 0 9 -148 20 -156 12z"/>
<path d="M620 1000 c0 -6 18 -10 40 -10 22 0 40 4 40 8 0 5 -18 9 -40 10 -22 1 -40 -3 -40 -8z"/>
<path d="M780 1000 c0 -6 20 -10 45 -10 25 0 45 4 45 9 0 5 -20 9 -45 9 -25 1 -45 -3 -45 -8z"/>
<path d="M46 984 c-8 -20 1 -34 20 -34 18 0 18 24 0 39 -11 9 -15 8 -20 -5z"/>
<path style="fill: var(--vt-primary)" d="M280 940 c0 -6 48 -10 124 -10 73 0 127 4 131 10 4 6 -40 10 -124 10 -81 0 -131 -4 -131 -10z"/>
<path d="M2794 899 c-10 -17 23 -46 38 -31 8 8 8 15 -2 27 -15 18 -26 19 -36 4z"/>
<path d="M280 885 c0 -6 24 -10 55 -11 31 0 54 5 52 10 -4 13 -107 14 -107 1z"/>
<path d="M407 888 c-14 -9 -10 -10 57 -11 27 -1 51 3 53 8 4 12 -93 14 -110 3z"/>
<path d="M540 892 c-42 -14 58 -23 143 -13 4 1 7 4 7 9 0 7 -130 10 -150 4z"/>
<path style="fill: var(--vt-primary)" d="M700 885 c0 -6 31 -10 85 -10 53 0 85 4 85 11 0 6 -32 10 -85 10 -54 0 -85 -4 -85 -11z"/>
<path d="M910 889 c0 -5 8 -9 18 -10 9 0 27 -2 39 -3 12 -1 24 3 27 11 3 8 -2 13 -14 13 -11 0 -20 -5 -20 -11 0 -6 -5 -7 -12 -2 -19 11 -38 12 -38 2z"/>
<path d="M40 815 c0 -20 4 -26 18 -23 9 2 17 12 17 23 0 11 -8 21 -17 23 -14 3 -18 -3 -18 -23z"/>

<g style="fill: var(--vt-danger)">
  <path d="M745 800 c-4 -7 -3 -16 3 -22 14 -14 45 -2 40 15 -6 16 -34 21 -43 7z"/>
  <path d="M806 802 c-13 -12 -5 -22 19 -22 14 0 25 4 25 9 0 10 -36 21 -44 13z"/>
  <path d="M860 802 c0 -6 8 -13 18 -16 28 -9 122 -5 122 5 0 5 -24 9 -54 9 -30 0 -61 3 -70 6 -9 3 -16 1 -16 -4z"/>
  <path d="M1010 795 c0 -7 41 -12 110 -13 66 -1 110 2 110 8 0 12 9 11 -118 13 -65 1 -102 -2 -102 -8z"/>

  <path d="M2120 790 c0 -15 5 -20 18 -18 9 2 17 10 17 18 0 8 -8 16 -17 18 -13 2 -18 -3 -18 -18z"/>
  <path d="M2180 793 c0 -8 52 -11 195 -11 107 1 195 5 195 9 0 5 -15 9 -32 9 -18 0 -106 1 -196 3 -118 1 -162 -1 -162 -10z"/>
  <path d="M2585 790 c3 -5 22 -10 41 -10 19 0 34 5 34 10 0 6 -18 10 -41 10 -24 0 -38 -4 -34 -10z"/>
</g>



<path d="M340 790 c0 -5 16 -10 35 -10 19 0 35 5 35 10 0 6 -16 10 -35 10 -19 0 -35 -4 -35 -10z"/>
<path d="M1670 790 c0 -5 20 -10 45 -10 25 0 45 5 45 10 0 6 -20 10 -45 10 -25 0 -45 -4 -45 -10z"/>

<path d="M40 701 c0 -12 7 -18 18 -17 36 2 37 36 1 36 -12 0 -19 -7 -19 -19z"/>
<path d="M297 707 c-3 -9 7 -14 34 -16 23 -1 39 3 39 9 0 6 -10 10 -22 9 -13 -2 -28 0 -34 4 -7 4 -14 1 -17 -6z"/>

<g style="fill: var(--vt-success)">
  <path d="M745 710 c-8 -13 3 -30 20 -30 9 0 12 6 8 17 -5 12 -3 14 7 8 9 -5 11 -4 6 3 -9 15 -33 16 -41 2z"/>
  <path d="M806 712 c-13 -12 -5 -22 19 -22 14 0 25 4 25 9 0 10 -36 21 -44 13z"/>
  <path d="M860 712 c0 -6 8 -13 18 -15 32 -9 122 -6 122 4 0 5 -24 9 -54 9 -30 0 -61 3 -70 6 -9 3 -16 1 -16 -4z"/>
  <path d="M1010 705 c0 -7 41 -12 110 -13 66 -1 110 2 110 8 0 12 7 11 -118 13 -65 1 -102 -2 -102 -8z"/>

  <path d="M2120 700 c0 -15 5 -20 18 -18 9 2 17 10 17 18 0 8 -8 16 -17 18 -13 2 -18 -3 -18 -18z"/>
  <path d="M2180 704 c0 -7 30 -11 85 -11 47 1 85 4 85 9 0 4 -17 8 -37 9 -21 0 -59 1 -86 2 -28 1 -47 -2 -47 -9z"/>
  <path d="M2371 712 c-6 -2 -11 -7 -11 -12 0 -4 36 -9 80 -9 60 -1 80 2 80 12 0 10 -18 13 -69 13 -39 -1 -75 -2 -80 -4z"/>
</g>

<path d="M1670 703 c0 -8 12 -13 30 -13 17 0 30 4 30 9 0 5 -13 11 -30 13 -20 3 -30 0 -30 -9z"/>

<path d="M296 615 c-2 -7 10 -12 30 -13 19 -2 34 2 34 7 0 13 -59 19 -64 6z"/>

<g style="fill: var(--vt-success)">
  <path d="M745 620 c-8 -13 3 -30 20 -30 9 0 12 6 8 17 -5 12 -3 14 7 8 9 -5 11 -4 6 3 -9 15 -33 16 -41 2z"/>
  <path d="M828 622 c-16 -2 -28 -7 -28 -11 0 -3 50 -7 110 -7 61 0 110 4 110 8 0 5 -4 6 -10 3 -5 -3 -10 -3 -10 2 0 4 -25 8 -55 8 -30 0 -55 -4 -55 -8 0 -4 -8 -4 -17 1 -10 4 -30 6 -45 4z"/>
</g>

<path d="M1673 615 c6 -17 47 -18 47 -2 0 10 -9 14 -25 13 -14 0 -24 -5 -22 -11z"/>

<g style="fill: var(--vt-success)">
  <path d="M2120 610 c0 -15 5 -20 18 -18 9 2 17 10 17 18 0 8 -8 16 -17 18 -13 2 -18 -3 -18 -18z"/>
  <path d="M2236 622 c-3 -5 -19 -7 -37 -4 -20 3 -30 1 -25 -6 10 -16 76 -13 76 4 0 16 -6 18 -14 6z"/>
  <path d="M2400 616 c0 -6 11 -12 25 -12 14 -1 25 3 25 10 0 6 -11 12 -25 12 -14 1 -25 -3 -25 -10z"/>
  <path d="M2265 610 c7 -12 65 -10 65 2 0 4 -16 8 -36 8 -21 0 -33 -4 -29 -10z"/>
</g>

<path d="M45 585 c0 -17 5 -25 15 -23 8 2 15 12 15 23 0 11 -7 21 -15 23 -10 2 -15 -6 -15 -23z"/>
<path d="M294 531 c-12 -12 1 -17 51 -19 30 -1 55 2 55 7 0 9 -98 20 -106 12z"/>
<path d="M443 532 c-18 -2 -33 -7 -33 -13 0 -12 67 -12 75 0 8 13 -5 17 -42 13z"/>

<g style="fill: var(--vt-warning)">
  <path d="M745 530 c-8 -13 3 -30 20 -30 14 0 27 24 18 34 -10 9 -31 7 -38 -4z"/>
  <path d="M800 531 c0 -6 3 -10 8 -10 4 1 9 0 12 -1 16 -7 111 -6 116 1 3 5 -7 9 -23 10 -15 0 -47 2 -70 5 -28 4 -43 2 -43 -5z"/>
  <path d="M950 526 c0 -18 35 -22 45 -6 3 6 2 10 -4 10 -5 0 -16 3 -25 6 -11 4 -16 1 -16 -10z"/>
</g>

<path d="M1670 525 c0 -10 16 -13 64 -12 74 2 102 16 35 18 -24 1 -56 3 -71 5 -18 2 -28 -2 -28 -11z"/>
<g style="fill: var(--vt-warning)">
  <path d="M2124 523 c2 -10 9 -18 17 -18 20 0 17 29 -3 33 -11 2 -16 -3 -14 -15z"/>
  <path d="M2173 527 c-2 -4 2 -9 9 -11 20 -6 48 -4 48 5 0 4 13 2 30 -4 23 -9 33 -8 42 1 9 9 5 12 -22 13 -19 1 -50 2 -68 3 -19 0 -36 -2 -39 -7z"/>
  <path d="M2380 526 c0 -8 38 -12 115 -12 63 -1 115 3 115 8 0 10 5 10 -122 12 -74 2 -108 -1 -108 -8z"/>
</g>

<path d="M35 480 c-4 -7 -3 -16 3 -22 14 -14 47 -6 47 12 0 18 -40 26 -50 10z"/>
<g style="fill: var(--vt-warning)">
  <path d="M750 446 c-13 -17 -6 -36 15 -36 19 0 26 27 11 39 -10 8 -17 7 -26 -3z"/>
  <path d="M2123 444 c-7 -19 11 -39 26 -30 16 10 13 33 -4 40 -9 3 -18 -1 -22 -10z"/>
  <path d="M803 438 c-5 -9 18 -11 169 -12 71 -1 108 3 108 10 0 12 -269 14 -277 2z"/>
  <path d="M2170 440 c0 -4 10 -10 23 -14 32 -8 37 -8 37 7 0 7 -13 13 -30 13 -16 1 -30 -2 -30 -6z"/>
  <path d="M2243 436 c4 -13 97 -19 97 -6 0 6 -12 11 -27 11 -16 1 -38 3 -51 4 -13 1 -21 -2 -19 -9z"/>
  <path d="M2400 441 c-35 -4 -48 -8 -35 -12 33 -10 98 -5 102 9 3 6 1 11 -4 10 -4 -1 -33 -4 -63 -7z"/>
</g>

<path d="M290 435 c0 -7 37 -11 110 -11 61 0 110 4 110 8 0 4 -10 8 -22 9 -13 0 -62 1 -110 3 -59 1 -88 -1 -88 -9z"/>
<path d="M1670 435 c0 -7 20 -11 55 -11 30 1 55 4 55 9 0 4 -6 7 -12 8 -7 0 -32 1 -55 3 -27 1 -43 -2 -43 -9z"/>

<g style="fill: var(--vt-disabled-color)">
  <path d="M750 355 c-20 -24 4 -45 26 -24 13 14 13 17 1 27 -11 10 -17 9 -27 -3z"/>
  <path d="M293 348 c-5 -9 -1 -10 54 -12 25 0 43 4 43 10 0 12 -89 14 -97 2z"/>
  <path d="M800 350 c0 -6 12 -10 28 -11 135 -4 164 -3 168 3 3 5 -23 8 -58 9 -35 0 -80 2 -100 4 -21 2 -38 0 -38 -5z"/>
  <path d="M1010 350 c0 -10 31 -18 48 -13 22 8 13 18 -18 19 -16 1 -30 -2 -30 -6z"/>
  <path d="M1670 345 c0 -5 23 -11 51 -12 33 -2 49 1 47 8 -5 14 -98 18 -98 4z"/>
  <path d="M2180 348 c0 -9 2 -10 58 -12 40 -1 62 12 25 16 -50 4 -83 2 -83 -4z"/>
  <path d="M2290 349 c0 -5 8 -9 18 -9 9 0 27 -3 40 -6 15 -5 22 -2 22 8 0 11 -11 15 -40 15 -22 0 -40 -4 -40 -8z"/>
  <path d="M2380 348 c0 -10 -7 -10 153 -11 75 -1 137 1 137 6 0 8 4 8 -168 10 -67 1 -122 -1 -122 -5z"/>
  <path d="M751 266 c-9 -10 -8 -16 3 -25 10 -9 16 -8 25 3 9 10 8 16 -3 25 -10 9 -16 8 -25 -3z"/>
  <path d="M2123 264 c-8 -21 13 -42 28 -27 13 13 5 43 -11 43 -6 0 -13 -7 -17 -16z"/>
  <path d="M293 257 c4 -12 147 -16 147 -4 0 9 -1 9 -83 12 -40 1 -66 -2 -64 -8z"/>
  <path d="M450 259 c0 -5 3 -9 8 -10 4 0 15 -2 26 -4 20 -4 46 4 46 14 0 3 -18 6 -40 7 -22 1 -40 -3 -40 -7z"/>
  <path d="M800 260 c0 -6 17 -10 38 -11 20 0 58 -1 85 -2 26 -1 47 1 47 5 0 5 -24 8 -52 9 -29 0 -68 2 -85 5 -18 2 -33 -1 -33 -6z"/>
  <path d="M1005 259 c-38 -9 -29 -10 78 -12 105 -3 163 12 75 18 -16 1 -28 -2 -28 -6 0 -5 -6 -7 -12 -4 -27 9 -84 11 -113 4z"/>
  <path d="M1670 255 c0 -7 24 -11 68 -9 82 2 87 3 80 10 -12 11 -148 10 -148 -1z"/>
  <path d="M2170 258 c0 -9 0 -9 105 -10 104 0 110 1 101 9 -10 10 -206 10 -206 1z"/>
  <path d="M751 176 c-9 -10 -8 -16 3 -25 10 -9 16 -8 25 3 9 10 8 16 -3 25 -10 9 -16 8 -25 -3z"/>
  <path d="M2123 174 c-8 -20 8 -36 26 -25 15 10 8 41 -9 41 -6 0 -13 -7 -17 -16z"/>
  <path d="M293 166 c2 -6 11 -10 20 -10 10 1 26 2 37 3 37 2 20 17 -20 18 -27 1 -40 -3 -37 -11z"/>
  <path d="M800 170 c0 -5 19 -10 43 -11 23 0 61 -2 85 -2 23 -1 50 1 60 5 9 4 -17 7 -58 8 -41 1 -87 4 -102 6 -16 3 -28 0 -28 -6z"/>
  <path d="M1017 169 c16 -16 55 -20 50 -5 -2 6 -17 12 -33 14 -23 3 -27 1 -17 -9z"/>
  <path d="M1670 165 c0 -10 18 -12 63 -6 4 1 7 4 7 9 0 4 -16 7 -35 8 -21 0 -35 -4 -35 -11z"/>
  <path d="M2170 170 c0 -10 18 -12 75 -12 84 0 138 3 133 8 -10 10 -208 14 -208 4z"/>
  <path d="M2390 171 c0 -5 18 -11 41 -13 39 -4 55 2 42 16 -10 9 -83 7 -83 -3z"/>
  <path d="M2495 167 c6 -15 38 -17 43 -2 1 6 -9 11 -23 13 -18 2 -23 -1 -20 -11z"/>
  <path d="M745 90 c-4 -6 -1 -17 5 -26 10 -11 16 -12 26 -3 11 9 11 15 3 25 -14 17 -25 18 -34 4z"/>
  <path d="M2123 84 c-8 -20 8 -36 26 -25 15 10 8 41 -9 41 -6 0 -13 -7 -17 -16z"/>
  <path d="M292 79 c2 -6 7 -10 11 -10 4 1 23 1 42 1 19 0 35 5 35 10 0 6 -21 10 -46 10 -28 0 -44 -4 -42 -11z"/>
  <path d="M800 78 c0 -5 10 -8 23 -9 58 -1 244 2 262 5 11 2 26 -1 33 -7 8 -6 12 -5 12 5 0 11 -30 13 -165 13 -91 0 -165 -3 -165 -7z"/>
  <path d="M1670 75 c0 -6 16 -9 40 -7 22 2 40 8 40 13 0 4 -18 7 -40 6 -22 -1 -40 -6 -40 -12z"/>
  <path d="M2170 78 c0 -8 165 -15 186 -8 7 3 45 3 84 0 44 -3 70 -1 70 5 0 6 -62 10 -170 10 -94 0 -170 -3 -170 -7z"/>
</g>

<path d="M43 311 c-1 -10 6 -17 17 -17 11 0 18 7 17 16 -1 22 -33 23 -34 1z"/>
<path d="M50 160 c-15 -28 -9 -34 16 -16 14 11 16 17 7 26 -8 9 -14 7 -23 -10z"/>




</g>
</svg>