<svg xmlns="http://www.w3.org/2000/svg" version="1.0" viewBox="0 0 300.000000 166.000000" style="background: var(--vt-body-bg)">

<g transform="translate(0.000000,166.000000) scale(0.100000,-0.100000)" style="fill: var(--vt-body-color)" stroke="none">
<path d="M2460 1605 c0 -18 5 -25 19 -25 20 0 31 17 24 38 -3 6 -13 12 -24 12 -14 0 -19 -7 -19 -25z"/>
<path d="M2566 1621 c-11 -17 5 -39 25 -34 25 7 25 43 0 43 -11 0 -22 -4 -25 -9z"/>
<path d="M2827 1624 c-4 -4 -7 -14 -7 -21 0 -11 15 -13 68 -11 52 2 67 6 67 18 0 11 -15 16 -60 18 -34 2 -64 0 -68 -4z" style="fill: var(--vt-primary)"/>
<path d="M40 1610 c0 -6 15 -11 33 -12 17 0 45 -2 60 -2 15 -1 33 2 40 6 7 4 -5 8 -28 9 -22 1 -55 3 -72 5 -18 2 -33 -1 -33 -6z"/>
<path d="M220 1608 c0 -9 -1 -9 53 -11 20 -1 37 3 37 8 0 6 -20 10 -45 10 -25 1 -45 -3 -45 -7z"/>
<path d="M353 1607 c4 -13 47 -17 67 -6 17 10 18 9 -33 13 -22 2 -36 -1 -34 -7z"/>
<path d="M2690 1611 c0 -5 6 -11 13 -14 17 -6 78 4 72 12 -6 11 -85 12 -85 2z"/>
<g style="fill: var(--vt-primary)">
  <path d="M1004 1451 l47 -48 -53 -47 -53 -46 108 0 107 0 0 95 0 95 -102 0 -102 0 48 -49z m136 -46 l0 -75 -65 0 c-36 0 -65 4 -65 9 0 5 15 22 34 39 l34 29 -36 37 -37 36 68 0 67 0 0 -75z" />
  <path d="M1230 1450 c0 -19 32 -90 41 -90 10 0 24 32 35 78 9 36 -8 20 -22 -21 l-11 -32 -16 38 c-15 36 -27 48 -27 27z"/>
  <path d="M1330 1411 c0 -28 5 -51 10 -51 6 0 10 20 10 44 0 25 -4 48 -10 51 -6 4 -10 -13 -10 -44z"/>
  <path d="M1370 1410 c0 -27 5 -50 10 -50 6 0 10 9 10 20 0 11 4 20 9 20 5 0 13 -9 16 -20 3 -11 11 -20 16 -20 12 0 12 17 -1 25 -6 4 -5 13 3 26 10 17 9 22 -7 35 -11 8 -28 14 -38 14 -15 0 -18 -8 -18 -50z"/>
  <path d="M1462 1415 c3 -44 6 -50 27 -53 30 -5 51 20 51 59 0 46 -19 43 -22 -3 -4 -55 -31 -61 -36 -8 -6 58 -24 62 -20 5z"/>
  <path d="M1560 1445 c-10 -12 -10 -18 0 -30 7 -8 19 -15 27 -15 8 0 13 -6 10 -12 -2 -7 -14 -12 -26 -11 -11 2 -21 -2 -21 -8 0 -6 14 -9 32 -7 42 4 50 33 14 49 -33 15 -33 29 0 29 14 0 23 4 19 10 -9 15 -41 12 -55 -5z"/>
  <path d="M1634 1449 c-3 -5 2 -9 10 -9 12 0 16 -10 16 -40 0 -22 5 -40 10 -40 6 0 10 18 10 40 0 29 4 40 15 40 10 0 15 -10 15 -29 0 -56 66 -71 84 -18 8 23 6 31 -12 49 -18 18 -25 20 -46 10 -13 -6 -27 -8 -31 -4 -10 10 -65 11 -71 1z m144 -40 c2 -17 -3 -29 -13 -33 -25 -9 -35 1 -35 35 0 26 3 30 23 27 15 -2 23 -11 25 -29z"/>
  <path d="M1804 1449 c-3 -5 2 -9 10 -9 12 0 16 -10 16 -40 0 -22 5 -40 10 -40 6 0 10 18 10 40 0 31 4 40 17 40 9 0 13 3 9 7 -11 11 -65 12 -72 2z"/>
  <path d="M1900 1435 c-6 -14 -14 -36 -20 -50 -6 -17 -6 -25 1 -25 5 0 12 7 15 15 8 20 31 19 43 -2 5 -10 12 -15 16 -12 6 7 -31 99 -40 99 -3 0 -10 -11 -15 -25z"/>
<path d="M1980 1411 c0 -50 1 -51 30 -51 17 0 30 5 30 10 0 6 -10 10 -23 10 -20 0 -23 4 -19 34 2 18 -1 37 -7 40 -7 5 -11 -9 -11 -43z"/>
</g>

<path d="M1035 1190 c-4 -6 13 -10 44 -10 28 0 51 5 51 10 0 6 -20 10 -44 10 -25 0 -48 -4 -51 -10z"/>
<path d="M1140 1189 c0 -5 41 -9 90 -9 50 0 90 4 90 9 0 6 -40 10 -90 9 -49 0 -90 -4 -90 -9z"/>
<path d="M1340 1190 c0 -5 23 -10 50 -10 28 0 50 5 50 10 0 6 -22 10 -50 10 -27 0 -50 -4 -50 -10z"/>
<path d="M1500 1190 c0 -6 27 -10 60 -10 33 0 60 4 60 8 0 4 -27 9 -60 10 -35 1 -60 -2 -60 -8z"/>
<path d="M1660 1190 c0 -5 16 -10 35 -10 19 0 35 5 35 10 0 6 -16 10 -35 10 -19 0 -35 -4 -35 -10z"/>
<path d="M1740 1188 c0 -4 23 -8 50 -8 28 0 50 5 50 10 0 6 -22 10 -50 9 -27 -1 -50 -6 -50 -11z"/>
<path d="M1850 1190 c0 -5 24 -10 54 -10 30 0 58 5 61 10 4 6 -17 10 -54 10 -34 0 -61 -4 -61 -10z"/>
<path d="M1110 1149 c0 -5 28 -9 62 -9 34 0 58 3 54 7 -11 11 -116 13 -116 2z"/>
<path d="M1240 1148 c0 -4 52 -8 115 -8 63 0 115 4 115 8 0 4 -52 8 -115 8 -63 0 -115 -3 -115 -8z"/>
<path d="M1550 1148 c0 -4 20 -8 45 -8 25 0 45 4 45 8 0 5 -20 8 -45 8 -25 0 -45 -3 -45 -8z"/>
<path d="M1650 1149 c0 -4 20 -9 45 -11 27 -2 44 1 42 7 -4 11 -87 14 -87 4z"/>
<path d="M1750 1151 c0 -5 29 -11 65 -13 40 -2 64 1 62 7 -5 13 -127 19 -127 6z"/>
<path style="fill: var(--vt-primary);" d="M980 990 c0 -5 6 -10 13 -11 6 0 20 -2 30 -4 9 -2 17 2 17 9 0 6 -13 13 -30 14 -16 1 -30 -2 -30 -8z"/>
<path d="M1472 989 c2 -7 16 -13 30 -15 20 -2 25 1 21 12 -6 17 -56 19 -51 3z"/>
<path d="M1930 986 c0 -10 12 -11 108 -7 7 1 10 5 7 11 -9 14 -115 10 -115 -4z"/>
<path style="fill: var(--vt-primary)" d="M770 929 c0 -5 102 -9 246 -9 146 0 243 4 240 9 -8 12 -486 12 -486 0z"/>
<path style="fill: var(--vt-primary)" d="M1437 843 c-4 -3 -7 -15 -7 -25 0 -13 -8 -18 -30 -18 -16 0 -30 -4 -30 -10 0 -6 50 -10 130 -9 72 0 130 5 130 10 0 5 -12 9 -26 9 -14 0 -39 11 -56 25 -28 24 -95 35 -111 18z m83 -28 c0 -10 -11 -15 -35 -15 -24 0 -35 5 -35 15 0 10 11 15 35 15 24 0 35 -5 35 -15z"/>
<path style="fill: var(--vt-disabled-color)" d="M1432 723 l3 -48 65 0 65 0 3 48 c2 33 0 47 -7 42 -6 -3 -11 -22 -11 -41 l0 -34 -50 0 -50 0 0 40 c0 22 -5 40 -11 40 -6 0 -9 -19 -7 -47z"/>
<path style="fill: var(--vt-disabled-color)" d="M1470 750 c0 -25 32 -44 48 -28 15 15 15 35 0 44 -7 5 -9 2 -5 -9 4 -12 2 -14 -10 -10 -12 5 -14 3 -8 -7 5 -8 4 -11 -3 -6 -6 4 -9 13 -5 21 3 8 0 15 -6 15 -6 0 -11 -9 -11 -20z"/>

<g style="fill: var(--vt-primary);">
  <path d="M1344 626 c-3 -8 -4 -25 -2 -38 3 -23 3 -23 158 -23 l155 0 0 35 0 35 -153 3 c-126 2 -153 0 -158 -12z m306 -26 l0 -30 -150 0 -150 0 0 30 0 30 150 0 150 0 0 -30z" />
  <path d="M1430 598 c0 -4 32 -8 70 -8 39 0 70 4 70 9 0 5 -31 8 -70 8 -38 -1 -70 -5 -70 -9z"/>
</g>


<path d="M892 469 c4 -11 28 -14 106 -14 56 -1 102 3 102 7 0 4 -40 8 -89 8 -49 0 -97 3 -107 7 -12 4 -15 2 -12 -8z"/>
<path d="M1560 465 c0 -5 18 -10 40 -10 22 0 40 3 40 6 0 4 -18 9 -40 11 -23 2 -40 -1 -40 -7z"/>
<path d="M1700 468 c0 -5 10 -8 23 -9 12 0 30 -2 40 -4 9 -2 17 0 17 5 0 4 -18 10 -40 12 -22 2 -40 0 -40 -4z"/>
<path d="M1110 461 c0 -4 16 -8 35 -7 46 1 46 16 0 16 -19 0 -35 -4 -35 -9z"/>
<path d="M1280 461 c0 -9 157 -8 167 2 3 4 -33 7 -80 7 -48 0 -87 -4 -87 -9z"/>
<path style="fill: var(--vt-primary)" d="M1864 463 c9 -10 206 -10 206 -1 0 5 -48 8 -107 8 -58 0 -103 -3 -99 -7z"/>
<path d="M920 432 c-6 -2 -10 -7 -10 -10 0 -6 55 -6 144 -2 5 0 6 3 3 6 -7 7 -120 11 -137 6z"/>
<path d="M1083 428 c-10 -3 16 -6 57 -6 77 0 78 4 3 10 -23 2 -50 0 -60 -4z"/>
<path d="M1230 430 c-11 -7 0 -10 34 -10 52 0 57 10 9 16 -16 2 -35 -1 -43 -6z"/>
<path d="M1350 431 l-35 -7 48 -5 c27 -2 46 0 44 5 -4 13 -16 14 -57 7z"/>
<path d="M1475 430 l-60 -6 68 -4 c37 -3 67 -2 67 2 0 12 -14 13 -75 8z"/>
<path d="M1890 429 c-107 -7 -89 -10 72 -12 70 -1 123 2 119 6 -11 11 -86 13 -191 6z"/>
<path d="M1070 389 c0 -5 25 -9 55 -9 30 0 55 4 55 8 0 5 -25 9 -55 9 -30 0 -55 -3 -55 -8z"/>
<path style="fill: var(--vt-primary)" d="M1190 388 c0 -5 43 -8 95 -8 52 0 95 4 95 9 0 6 -41 9 -95 8 -52 -1 -95 -5 -95 -9z"/>
<path d="M1470 390 c0 -6 20 -10 45 -10 25 0 45 4 45 9 0 5 -20 9 -45 9 -25 1 -45 -3 -45 -8z"/>
<path style="fill: var(--vt-primary)" d="M1600 388 c0 -4 41 -8 90 -8 50 0 90 4 90 9 0 5 -40 9 -90 8 -49 -1 -90 -5 -90 -9z"/>
<path d="M1790 388 c0 -5 29 -8 65 -8 36 0 65 3 65 8 0 4 -29 7 -65 7 -36 0 -65 -3 -65 -7z"/>
<path d="M1248 233 c-103 -5 -101 -23 2 -23 64 0 80 3 80 15 0 8 -1 14 -2 13 -2 -1 -38 -4 -80 -5z"/>
<path d="M950 220 c0 -6 20 -9 45 -8 25 0 45 5 45 10 0 4 -20 8 -45 8 -25 0 -45 -5 -45 -10z"/>
<path d="M1050 220 c0 -5 25 -10 55 -10 30 0 55 5 55 10 0 6 -25 10 -55 10 -30 0 -55 -4 -55 -10z"/>
<path d="M1340 218 c0 -4 27 -8 60 -8 33 0 60 4 60 9 0 6 -27 9 -60 9 -33 -1 -60 -5 -60 -10z"/>
<path d="M1580 220 c0 -5 16 -10 35 -10 19 0 35 5 35 10 0 6 -16 10 -35 10 -19 0 -35 -4 -35 -10z"/>
<path d="M1660 217 c0 -9 11 -12 35 -9 19 2 35 8 35 13 0 5 -16 9 -35 9 -22 0 -35 -5 -35 -13z"/>
<path d="M1740 220 c0 -6 39 -10 100 -9 55 0 100 5 100 10 0 5 -45 9 -100 9 -61 0 -100 -4 -100 -10z"/>
<path d="M1990 220 c0 -5 23 -10 50 -10 28 0 50 5 50 10 0 6 -22 10 -50 10 -27 0 -50 -4 -50 -10z"/>
</g>
</svg>